<?xml version="1.0" encoding="utf-8"?>
<!-- Generator: Adobe Illustrator 16.0.0, SVG Export Plug-In . SVG Version: 6.00 Build 0)  -->
<!DOCTYPE svg PUBLIC "-//W3C//DTD SVG 1.1//EN" "http://www.w3.org/Graphics/SVG/1.1/DTD/svg11.dtd">
<svg version="1.1" id="Layer_1" xmlns="http://www.w3.org/2000/svg" xmlns:xlink="http://www.w3.org/1999/xlink" x="0px" y="0px"
	 width="283.46px" height="283.46px" viewBox="0 0 283.46 283.46" enable-background="new 0 0 283.46 283.46" xml:space="preserve">
<path fill="#aaa" d="M3.138,214.726c-4.2-4.201-4.2-11.202,0.1-15.504L133.963,68.599l0,0l0,0c2-2,4.7-3,7.401-3.1
	c0.1,0,0.199,0,0.3,0c0.2,0,0.299,0,0.5,0c2.7,0.1,5.3,1.1,7.3,3.1l0,0l0,0l130.724,130.724c4.301,4.201,4.401,11.203,0.101,15.503
	c-4.199,4.201-11.201,4.201-15.502-0.1L141.763,91.604L18.741,214.726C14.44,218.927,7.438,219.027,3.138,214.726z"/>
</svg>
